<svg width="138" height="161" viewBox="0 0 138 161" fill="none" xmlns="http://www.w3.org/2000/svg">
<path d="M61.262 0C61.5407 0.0396144 61.8182 0.0979935 62.098 0.116758C64.3962 0.266876 66.6932 0.430546 68.9937 0.544177C69.7311 0.580664 70.4754 0.484755 71.2173 0.447226C73.1015 0.350275 74.9846 0.17201 76.8688 0.175137C78.925 0.178265 80.9927 0.253324 83.0328 0.47016C85.8654 0.770396 88.7072 1.09982 91.4904 1.64817C98.8082 3.09097 105.636 5.67945 111.963 9.32085C123.315 15.8551 131.777 24.7048 137.484 35.7478C137.651 36.072 137.799 36.4046 138 36.8247C136.952 36.8247 136.003 36.8508 135.061 36.8007C134.884 36.7913 134.675 36.5005 134.57 36.3014C132.962 33.2657 131.125 30.3498 128.994 27.5935C126.052 23.7874 122.634 20.366 118.815 17.2677C112.126 11.8395 104.458 7.97709 95.9664 5.42926C92.409 4.36175 88.7679 3.64557 85.0431 3.27861C84.097 3.18583 83.1521 3.08263 82.2048 2.99297C82.0064 2.97421 81.8034 2.98984 81.5878 3.03884C100.197 9.13424 113.454 20.4504 121.741 36.6433C121.706 36.7027 121.672 36.7622 121.637 36.8216C120.96 36.8216 120.28 36.8487 119.607 36.8007C119.452 36.7893 119.283 36.5359 119.182 36.365C118.113 34.5458 117.116 32.6902 115.984 30.9055C114.182 28.0658 112.098 25.3939 109.721 22.9253C108.278 21.4272 106.799 19.9521 105.243 18.551C101.683 15.3443 97.7221 12.5974 93.4194 10.256C89.0489 7.87805 84.448 5.95363 79.5741 4.61403C77.2449 3.97395 74.8642 3.46105 72.4731 3.04614C71.5155 2.88038 70.4582 3.06282 69.4673 3.20772C66.9317 3.58093 64.3824 3.92182 61.8858 4.4587C58.2448 5.24161 54.7482 6.43838 51.3387 7.84782C47.8387 9.29375 44.4797 10.969 41.3513 12.9925C39.3214 14.305 37.3661 15.7259 35.4911 17.2166C33.7434 18.6063 32.0851 20.1012 30.498 21.643C27.389 24.6631 24.6894 27.9709 22.4234 31.5633C21.9967 32.2399 21.5667 32.9133 21.1481 33.594C21.022 33.7984 20.9279 34.0194 20.7674 34.3342C22.2548 34.2383 23.6298 34.1487 25.0036 34.06C25.0312 34.1038 25.0587 34.1486 25.0851 34.1924C24.694 34.5114 24.3167 34.8471 23.9073 35.1453C22.6642 36.0491 21.4084 36.9383 20.1584 37.8349C18.7066 38.8763 17.2559 39.9209 15.804 40.9634C15.3877 41.2626 14.9737 41.5638 14.5494 41.8526C14.4393 41.9277 14.2639 42.0267 14.171 41.9933C14.0678 41.9558 13.9692 41.7838 13.9623 41.665C13.8453 39.751 13.7329 37.838 13.6412 35.923C13.5815 34.6887 13.5712 33.4523 13.5139 32.2169C13.4703 31.2704 13.3877 30.3248 13.3235 29.3782C13.39 29.3501 13.4554 29.3219 13.5219 29.2948C14.8487 30.9263 16.1744 32.5568 17.5621 34.2633C26.7583 18.2268 40.7228 7.47044 59.7929 2.28929C59.7769 2.2476 59.762 2.20694 59.7459 2.16524C58.7688 2.16524 57.7872 2.10895 56.817 2.17775C55.1106 2.29763 53.3938 2.4071 51.7114 2.67814C48.9958 3.11494 46.2733 3.57364 43.6093 4.21476C39.7136 5.153 35.9854 6.5395 32.3902 8.19914C28.2995 10.0871 24.4153 12.2867 20.9027 14.9722C18.6458 16.6975 16.4554 18.5166 14.4118 20.4494C10.8235 23.8447 7.74548 27.6123 5.21335 31.729C4.27412 33.2563 3.41861 34.8263 2.54245 36.3858C2.36585 36.6996 2.1686 36.8685 1.7546 36.8445C1.20643 36.8132 0.655969 36.8362 0 36.8362C0.100918 36.5839 0.155965 36.4098 0.237387 36.2472C4.49889 27.6852 10.5528 20.3389 18.4485 14.2737C26.9452 7.7467 36.6471 3.40892 47.5451 1.32708C50.4534 0.771438 53.3904 0.370082 56.3652 0.246026C57.5085 0.198072 58.6519 0.162628 59.7941 0.110503C60.0166 0.100078 60.2367 0.0385719 60.4581 0.00104248C60.7253 0.00104248 60.9925 0.00104248 61.2597 0.00104248L61.262 0Z" fill="white"/>
<path d="M76.738 161C76.4593 160.96 76.1818 160.902 75.902 160.883C73.6038 160.733 71.3068 160.569 69.0063 160.456C68.2689 160.419 67.5246 160.515 66.7827 160.553C64.8985 160.65 63.0154 160.828 61.1312 160.825C59.075 160.822 57.0073 160.747 54.9672 160.53C52.1346 160.23 49.2928 159.9 46.5096 159.352C39.1918 157.909 32.3638 155.321 26.0369 151.679C14.6847 145.145 6.22252 136.295 0.516052 125.252C0.348618 124.928 0.200699 124.595 0 124.175C1.04817 124.175 1.99658 124.149 2.93924 124.199C3.11584 124.209 3.32455 124.5 3.43005 124.699C5.03787 127.734 6.87505 130.65 9.0058 133.406C11.9485 137.213 15.3659 140.634 19.1848 143.732C25.8741 149.161 33.5416 153.023 42.0336 155.571C45.591 156.638 49.2321 157.354 52.9569 157.721C53.903 157.814 54.8479 157.917 55.7952 158.007C55.9936 158.026 56.1966 158.01 56.4122 157.961C37.8031 151.866 24.5461 140.55 16.2593 124.357C16.2937 124.297 16.3281 124.238 16.3625 124.178C17.0403 124.178 17.7203 124.151 18.3935 124.199C18.5483 124.211 18.7169 124.464 18.8178 124.635C19.8866 126.454 20.8843 128.31 22.0162 130.095C23.8179 132.934 25.9016 135.606 28.2789 138.075C29.7216 139.573 31.2009 141.048 32.7571 142.449C36.3168 145.656 40.2779 148.403 44.5806 150.744C48.9511 153.122 53.552 155.046 58.4259 156.386C60.7551 157.026 63.1358 157.539 65.5269 157.954C66.4845 158.12 67.5418 157.937 68.5327 157.792C71.0683 157.419 73.6176 157.078 76.1142 156.541C79.7552 155.758 83.2518 154.562 86.6613 153.152C90.1613 151.706 93.5203 150.031 96.6487 148.008C98.6786 146.695 100.634 145.274 102.509 143.783C104.257 142.394 105.915 140.899 107.502 139.357C110.611 136.337 113.311 133.029 115.577 129.437C116.003 128.76 116.433 128.087 116.852 127.406C116.978 127.202 117.072 126.981 117.233 126.666C115.745 126.762 114.37 126.851 112.996 126.94C112.969 126.896 112.941 126.851 112.915 126.808C113.306 126.489 113.683 126.153 114.093 125.855C115.336 124.951 116.592 124.062 117.842 123.165C119.293 122.124 120.744 121.079 122.196 120.037C122.612 119.737 123.026 119.436 123.451 119.147C123.561 119.072 123.736 118.973 123.829 119.007C123.932 119.044 124.031 119.216 124.038 119.335C124.155 121.249 124.267 123.162 124.359 125.077C124.418 126.311 124.429 127.548 124.486 128.783C124.53 129.73 124.612 130.675 124.676 131.622C124.61 131.65 124.545 131.678 124.478 131.705C123.151 130.074 121.826 128.443 120.438 126.737C111.242 142.773 97.2772 153.53 78.2071 158.711C78.2231 158.752 78.238 158.793 78.2541 158.835C79.2312 158.835 80.2128 158.891 81.183 158.822C82.8894 158.702 84.6062 158.593 86.2886 158.322C89.0042 157.885 91.7267 157.426 94.3907 156.785C98.2864 155.847 102.015 154.46 105.61 152.801C109.7 150.913 113.585 148.713 117.097 146.028C119.354 144.303 121.545 142.483 123.588 140.551C127.177 137.155 130.255 133.388 132.787 129.271C133.726 127.744 134.581 126.174 135.458 124.614C135.634 124.3 135.831 124.132 136.245 124.155C136.794 124.187 137.344 124.164 138 124.164C137.899 124.416 137.844 124.59 137.763 124.753C133.501 133.315 127.447 140.661 119.551 146.726C111.055 153.253 101.353 157.591 90.4549 159.673C87.5466 160.229 84.6096 160.63 81.6348 160.754C80.4915 160.802 79.3481 160.837 78.2059 160.889C77.9834 160.9 77.7633 160.961 77.5419 160.999C77.2747 160.999 77.0075 160.999 76.7403 160.999L76.738 161Z" fill="white"/>
</svg>
