<svg width="224" height="138" viewBox="0 0 224 138" fill="none" xmlns="http://www.w3.org/2000/svg">
<path d="M224 61.262C223.96 61.5407 223.902 61.8182 223.883 62.098C223.733 64.3962 223.569 66.6932 223.456 68.9937C223.419 69.7311 223.515 70.4754 223.553 71.2173C223.65 73.1015 223.828 74.9846 223.825 76.8688C223.822 78.925 223.747 80.9927 223.53 83.0328C223.23 85.8654 222.9 88.7072 222.352 91.4904C220.909 98.8082 218.321 105.636 214.679 111.963C208.145 123.315 199.295 131.777 188.252 137.484C187.928 137.651 187.595 137.799 187.175 138C187.175 136.952 187.149 136.003 187.199 135.061C187.209 134.884 187.5 134.675 187.699 134.57C190.734 132.962 193.65 131.125 196.406 128.994C200.213 126.052 203.634 122.634 206.732 118.815C212.161 112.126 216.023 104.458 218.571 95.9664C219.638 92.409 220.354 88.7679 220.721 85.0431C220.814 84.097 220.917 83.1521 221.007 82.2048C221.026 82.0064 221.01 81.8034 220.961 81.5878C214.866 100.197 203.55 113.454 187.357 121.741C187.297 121.706 187.238 121.672 187.178 121.637C187.178 120.96 187.151 120.28 187.199 119.607C187.211 119.452 187.464 119.283 187.635 119.182C189.454 118.113 191.31 117.116 193.095 115.984C195.934 114.182 198.606 112.098 201.075 109.721C202.573 108.278 204.048 106.799 205.449 105.243C208.656 101.683 211.403 97.7221 213.744 93.4194C216.122 89.0489 218.046 84.448 219.386 79.5741C220.026 77.2449 220.539 74.8642 220.954 72.4731C221.12 71.5155 220.937 70.4582 220.792 69.4673C220.419 66.9318 220.078 64.3824 219.541 61.8858C218.758 58.2448 217.562 54.7482 216.152 51.3387C214.706 47.8387 213.031 44.4797 211.008 41.3513C209.695 39.3214 208.274 37.3661 206.783 35.4911C205.394 33.7434 203.899 32.0851 202.357 30.498C199.337 27.389 196.029 24.6894 192.437 22.4234C191.76 21.9967 191.087 21.5667 190.406 21.1481C190.202 21.022 189.981 20.9279 189.666 20.7674C189.762 22.2548 189.851 23.6298 189.94 25.0036C189.896 25.0312 189.851 25.0587 189.808 25.0851C189.489 24.694 189.153 24.3167 188.855 23.9073C187.951 22.6642 187.062 21.4084 186.165 20.1584C185.124 18.7066 184.079 17.2559 183.037 15.804C182.737 15.3877 182.436 14.9737 182.147 14.5494C182.072 14.4393 181.973 14.2639 182.007 14.171C182.044 14.0678 182.216 13.9692 182.335 13.9623C184.249 13.8453 186.162 13.7329 188.077 13.6412C189.311 13.5815 190.548 13.5712 191.783 13.5139C192.73 13.4703 193.675 13.3877 194.622 13.3235C194.65 13.39 194.678 13.4554 194.705 13.5219C193.074 14.8487 191.443 16.1744 189.737 17.5621C205.773 26.7583 216.53 40.7228 221.711 59.7929C221.752 59.7769 221.793 59.762 221.835 59.7459C221.835 58.7688 221.891 57.7872 221.822 56.817C221.702 55.1106 221.593 53.3938 221.322 51.7114C220.885 48.9958 220.426 46.2733 219.785 43.6093C218.847 39.7136 217.46 35.9854 215.801 32.3902C213.913 28.2995 211.713 24.4153 209.028 20.9027C207.303 18.6458 205.483 16.4554 203.551 14.4118C200.155 10.8235 196.388 7.74548 192.271 5.21335C190.744 4.27412 189.174 3.41861 187.614 2.54245C187.3 2.36585 187.132 2.1686 187.155 1.7546C187.187 1.20643 187.164 0.655969 187.164 0C187.416 0.100918 187.59 0.155965 187.753 0.237387C196.315 4.49889 203.661 10.5528 209.726 18.4485C216.253 26.9452 220.591 36.6471 222.673 47.5451C223.229 50.4534 223.63 53.3904 223.754 56.3652C223.802 57.5085 223.837 58.6519 223.889 59.7941C223.9 60.0166 223.961 60.2367 223.999 60.4581C223.999 60.7253 223.999 60.9925 223.999 61.2597L224 61.262Z" fill="#A77D53"/>
<path d="M0 76.738C0.0396144 76.4593 0.0979935 76.1818 0.116758 75.902C0.266876 73.6038 0.430546 71.3068 0.544177 69.0063C0.580664 68.2689 0.484755 67.5246 0.447226 66.7827C0.350275 64.8985 0.17201 63.0154 0.175137 61.1312C0.178265 59.075 0.253324 57.0073 0.47016 54.9672C0.770396 52.1346 1.09982 49.2928 1.64817 46.5096C3.09097 39.1918 5.67945 32.3638 9.32085 26.0369C15.8551 14.6847 24.7048 6.22252 35.7478 0.516052C36.072 0.34862 36.4046 0.20069 36.8247 0C36.8247 1.04817 36.8508 1.99657 36.8007 2.93924C36.7913 3.11585 36.5005 3.32455 36.3014 3.43005C33.2657 5.03787 30.3498 6.87505 27.5935 9.0058C23.7874 11.9485 20.366 15.3659 17.2677 19.1848C11.8395 25.8741 7.97709 33.5416 5.42926 42.0336C4.36175 45.591 3.64557 49.2321 3.27861 52.9569C3.18583 53.903 3.08263 54.8479 2.99297 55.7952C2.97421 55.9936 2.98984 56.1966 3.03884 56.4122C9.13424 37.8031 20.4504 24.5461 36.6433 16.2593C36.7027 16.2937 36.7622 16.3281 36.8216 16.3625C36.8216 17.0403 36.8487 17.7203 36.8007 18.3935C36.7893 18.5483 36.5359 18.7169 36.365 18.8178C34.5458 19.8866 32.6902 20.8843 30.9055 22.0162C28.0658 23.8179 25.3939 25.9016 22.9253 28.2789C21.4272 29.7216 19.9521 31.2009 18.551 32.7571C15.3443 36.3168 12.5974 40.2779 10.256 44.5806C7.87805 48.9511 5.95363 53.552 4.61403 58.4259C3.97395 60.7551 3.46105 63.1358 3.04614 65.5269C2.88038 66.4845 3.06282 67.5418 3.20772 68.5327C3.58093 71.0682 3.92182 73.6176 4.4587 76.1142C5.24161 79.7552 6.43838 83.2518 7.84782 86.6613C9.29375 90.1613 10.969 93.5203 12.9925 96.6487C14.305 98.6786 15.7259 100.634 17.2166 102.509C18.6063 104.257 20.1012 105.915 21.643 107.502C24.6631 110.611 27.9709 113.311 31.5633 115.577C32.2399 116.003 32.9133 116.433 33.594 116.852C33.7984 116.978 34.0194 117.072 34.3342 117.233C34.2383 115.745 34.1487 114.37 34.06 112.996C34.1038 112.969 34.1486 112.941 34.1924 112.915C34.5114 113.306 34.8471 113.683 35.1453 114.093C36.0491 115.336 36.9383 116.592 37.8349 117.842C38.8763 119.293 39.9209 120.744 40.9634 122.196C41.2626 122.612 41.5638 123.026 41.8526 123.451C41.9277 123.561 42.0267 123.736 41.9933 123.829C41.9558 123.932 41.7838 124.031 41.665 124.038C39.751 124.155 37.838 124.267 35.923 124.359C34.6887 124.418 33.4523 124.429 32.2169 124.486C31.2704 124.53 30.3248 124.612 29.3782 124.676C29.3501 124.61 29.3219 124.545 29.2948 124.478C30.9263 123.151 32.5568 121.826 34.2633 120.438C18.2268 111.242 7.47044 97.2772 2.28929 78.2071C2.2476 78.2231 2.20694 78.238 2.16524 78.2541C2.16524 79.2312 2.10895 80.2128 2.17775 81.183C2.29763 82.8894 2.4071 84.6062 2.67814 86.2886C3.11494 89.0042 3.57364 91.7267 4.21476 94.3907C5.153 98.2864 6.5395 102.015 8.19914 105.61C10.0871 109.7 12.2867 113.585 14.9722 117.097C16.6975 119.354 18.5166 121.545 20.4494 123.588C23.8447 127.177 27.6123 130.255 31.729 132.787C33.2563 133.726 34.8263 134.581 36.3858 135.458C36.6996 135.634 36.8685 135.831 36.8445 136.245C36.8132 136.794 36.8362 137.344 36.8362 138C36.5839 137.899 36.4098 137.844 36.2472 137.763C27.6852 133.501 20.3389 127.447 14.2737 119.551C7.7467 111.055 3.40892 101.353 1.32708 90.4549C0.771438 87.5466 0.370082 84.6096 0.246026 81.6348C0.198072 80.4915 0.162628 79.3481 0.110503 78.2059C0.100078 77.9834 0.0385719 77.7633 0.00104248 77.5419C0.00104248 77.2747 0.00104248 77.0075 0.00104248 76.7403L0 76.738Z" fill="#A77D53"/>
</svg>
