<svg width="9" height="18" viewBox="0 0 9 18" fill="none" xmlns="http://www.w3.org/2000/svg">
<path d="M8.88712 6.60466C8.86604 6.77683 8.84632 6.93843 8.8266 7.10072C8.78308 7.45495 8.73887 7.80848 8.69535 8.16271C8.63211 8.67359 8.56547 9.18376 8.50699 9.69535C8.49475 9.80331 8.43015 9.78991 8.36351 9.78991C7.57945 9.78991 6.79607 9.78708 6.01201 9.7885C5.80665 9.7885 5.84473 9.77297 5.84473 9.95926C5.84337 12.4495 5.84337 14.9404 5.84269 17.4306C5.84269 17.6183 5.84269 17.8052 5.84269 18H2.66974V9.79414C2.6235 9.79414 2.59154 9.79414 2.5589 9.79414C1.73608 9.79202 0.91258 9.78991 0.089762 9.78991C0.0238005 9.78991 0.00340008 9.77015 0.00340008 9.69959C0.00408009 8.69193 0.00340008 7.68428 0 6.67593C0 6.5849 0.0503211 6.59549 0.104042 6.59549C0.842539 6.59619 1.58104 6.5969 2.32021 6.5976C2.40793 6.5976 2.49498 6.59266 2.58202 6.5976C2.64254 6.60042 2.66362 6.58631 2.66294 6.51645C2.66022 5.78682 2.66294 5.0572 2.66022 4.32827C2.65818 3.54854 2.77038 2.7928 3.09883 2.08505C3.55172 1.10986 4.29974 0.497365 5.29324 0.196763C5.86921 0.0231764 6.4581 -0.0198675 7.05176 0.00765241C7.67125 0.0358779 8.28938 0.0845669 8.9082 0.121966C8.97756 0.1262 8.99864 0.151602 8.99864 0.222872C8.99728 1.11339 8.99728 2.0039 9 2.89512C9 2.97486 8.97348 2.99321 8.9014 2.9925C8.40839 2.98968 7.9147 2.98685 7.42168 2.99462C7.21088 2.99814 6.99736 3.01014 6.79131 3.04966C6.4581 3.11387 6.1759 3.27828 6.00725 3.60076C5.90729 3.79128 5.85833 4.00156 5.85629 4.21678C5.84745 4.98734 5.84745 5.75789 5.84133 6.52845C5.84133 6.59548 5.87261 6.59619 5.92021 6.59619C6.34318 6.59619 6.76615 6.5976 7.18912 6.5976C7.71613 6.5976 8.24382 6.5976 8.77083 6.5976C8.8062 6.5976 8.84224 6.60184 8.88848 6.60466H8.88712Z" fill="#242424"/>
</svg>
