<svg width="1400" height="294" viewBox="0 0 1400 294" fill="none" xmlns="http://www.w3.org/2000/svg">
<path d="M-5.70498e-06 163.485C0.0848823 162.892 0.20998 162.3 0.25019 161.704C0.571871 156.808 0.922592 151.914 1.16609 147.013C1.24427 145.442 1.03875 143.857 0.958334 142.276C0.750582 138.262 0.368586 134.25 0.375287 130.236C0.381989 125.855 0.542829 121.45 1.00748 117.104C1.65084 111.069 2.35675 105.015 3.53178 99.0856C6.62349 83.4956 12.1702 68.949 19.9732 55.4699C33.9753 31.2849 52.9388 13.2567 76.6025 1.09942C77.2972 0.742703 78.0098 0.427548 78.9101 -3.44927e-06C78.9101 2.23306 78.9659 4.25357 78.8587 6.26187C78.8386 6.63812 78.2153 7.08273 77.7887 7.30752C71.2836 10.7328 65.0354 14.6468 59.129 19.1863C50.973 25.4555 43.6414 32.7361 37.0022 40.8719C25.3703 55.123 17.0938 71.4581 11.6341 89.5498C9.34661 97.1286 7.81192 104.886 7.02559 112.821C6.82677 114.837 6.60562 116.85 6.4135 118.868C6.37329 119.291 6.4068 119.723 6.5118 120.182C19.5734 80.537 43.8223 52.2938 78.5214 34.6394C78.6487 34.7127 78.7761 34.786 78.9034 34.8592C78.9034 36.3032 78.9615 37.752 78.8587 39.1861C78.8341 39.516 78.2913 39.8751 77.9249 40.0901C74.0268 42.3672 70.0505 44.4927 66.226 46.9042C60.1409 50.7424 54.4154 55.1816 49.1256 60.2464C45.9155 63.3199 42.7545 66.4716 39.7521 69.787C32.8807 77.3706 26.9944 85.8093 21.977 94.9761C16.8815 104.287 12.7578 114.089 9.88721 124.473C8.5156 129.435 7.41652 134.507 6.52743 139.601C6.17224 141.641 6.56318 143.893 6.87369 146.004C7.67342 151.406 8.40391 156.837 9.55436 162.156C11.232 169.913 13.7965 177.363 16.8168 184.626C19.9152 192.083 23.505 199.239 27.841 205.904C30.6535 210.228 33.6983 214.394 36.8928 218.388C39.8705 222.112 43.074 225.645 46.3779 229.026C52.8495 235.65 59.9376 241.401 67.6356 246.229C69.0854 247.137 70.5285 248.054 71.9873 248.945C72.4251 249.214 72.8987 249.414 73.5733 249.756C73.3678 246.588 73.1757 243.658 72.9858 240.731C73.0796 240.673 73.1757 240.614 73.2695 240.558C73.9531 241.391 74.6724 242.195 75.3113 243.067C77.2481 245.715 79.1536 248.391 81.0747 251.054C83.3064 254.147 85.5448 257.237 87.7787 260.331C88.4198 261.217 89.0654 262.099 89.6842 263.003C89.845 263.238 90.0572 263.612 89.9857 263.81C89.9053 264.03 89.5367 264.24 89.2821 264.254C85.1806 264.503 81.0814 264.743 76.9778 264.938C74.3328 265.065 71.6834 265.087 69.0363 265.21C67.0079 265.302 64.9818 265.478 62.9534 265.615C62.8931 265.473 62.8328 265.334 62.7747 265.192C66.2707 262.366 69.7645 259.541 73.4214 256.585C39.0574 236.993 16.0081 207.243 4.90563 166.615C4.81627 166.649 4.72915 166.681 4.63979 166.715C4.63979 168.797 4.51916 170.888 4.6666 172.955C4.9235 176.591 5.15806 180.248 5.73887 183.832C6.67487 189.618 7.65779 195.418 9.03163 201.093C11.0421 209.393 14.0132 217.335 17.5696 224.995C21.6152 233.71 26.3287 241.985 32.0832 249.468C35.7803 254.276 39.6784 258.943 43.8201 263.297C51.0959 270.941 59.1692 277.499 67.9908 282.893C71.2635 284.894 74.6277 286.717 77.9696 288.583C78.642 288.96 79.0039 289.38 78.9525 290.262C78.8855 291.43 78.9347 292.602 78.9347 294C78.3941 293.785 78.021 293.668 77.6725 293.494C59.3255 284.415 43.5833 271.518 30.5865 254.697C16.6001 236.595 7.30483 215.926 2.84374 192.708C1.65308 186.512 0.793028 180.255 0.527194 173.918C0.424435 171.482 0.348482 169.046 0.236787 166.613C0.214448 166.139 0.0826485 165.67 0.00222826 165.198C0.00222824 164.629 0.00222821 164.059 0.00222819 163.49L-5.70498e-06 163.485Z" fill="#242424" fill-opacity="0.15"/>
<path d="M1400 163.485C1399.92 162.892 1399.79 162.3 1399.75 161.704C1399.43 156.808 1399.08 151.914 1398.83 147.013C1398.76 145.442 1398.96 143.857 1399.04 142.276C1399.25 138.262 1399.63 134.25 1399.62 130.236C1399.62 125.855 1399.46 121.45 1398.99 117.104C1398.35 111.069 1397.64 105.015 1396.47 99.0856C1393.38 83.4956 1387.83 68.949 1380.03 55.4699C1366.02 31.2849 1347.06 13.2567 1323.4 1.09942C1322.7 0.742703 1321.99 0.427548 1321.09 -3.44927e-06C1321.09 2.23306 1321.03 4.25357 1321.14 6.26187C1321.16 6.63812 1321.78 7.08273 1322.21 7.30752C1328.72 10.7328 1334.96 14.6468 1340.87 19.1863C1349.03 25.4555 1356.36 32.7361 1363 40.8719C1374.63 55.123 1382.91 71.4581 1388.37 89.5498C1390.65 97.1286 1392.19 104.886 1392.97 112.821C1393.17 114.837 1393.39 116.85 1393.59 118.868C1393.63 119.291 1393.59 119.723 1393.49 120.182C1380.43 80.537 1356.18 52.2938 1321.48 34.6394C1321.35 34.7127 1321.22 34.786 1321.1 34.8592C1321.1 36.3032 1321.04 37.752 1321.14 39.1861C1321.17 39.516 1321.71 39.8751 1322.08 40.0901C1325.97 42.3672 1329.95 44.4927 1333.77 46.9042C1339.86 50.7424 1345.58 55.1816 1350.87 60.2464C1354.08 63.3199 1357.25 66.4716 1360.25 69.787C1367.12 77.3706 1373.01 85.8093 1378.02 94.9761C1383.12 104.287 1387.24 114.089 1390.11 124.473C1391.48 129.435 1392.58 134.507 1393.47 139.601C1393.83 141.641 1393.44 143.893 1393.13 146.004C1392.33 151.406 1391.6 156.837 1390.45 162.156C1388.77 169.913 1386.2 177.363 1383.18 184.626C1380.08 192.083 1376.49 199.239 1372.16 205.904C1369.35 210.228 1366.3 214.394 1363.11 218.388C1360.13 222.112 1356.93 225.645 1353.62 229.026C1347.15 235.65 1340.06 241.401 1332.36 246.229C1330.91 247.137 1329.47 248.054 1328.01 248.945C1327.57 249.214 1327.1 249.414 1326.43 249.756C1326.63 246.588 1326.82 243.658 1327.01 240.731C1326.92 240.673 1326.82 240.614 1326.73 240.558C1326.05 241.391 1325.33 242.195 1324.69 243.067C1322.75 245.715 1320.85 248.391 1318.93 251.054C1316.69 254.147 1314.46 257.237 1312.22 260.331C1311.58 261.217 1310.93 262.099 1310.32 263.003C1310.15 263.238 1309.94 263.612 1310.01 263.81C1310.09 264.03 1310.46 264.24 1310.72 264.254C1314.82 264.503 1318.92 264.743 1323.02 264.938C1325.67 265.065 1328.32 265.087 1330.96 265.21C1332.99 265.302 1335.02 265.478 1337.05 265.615C1337.11 265.473 1337.17 265.334 1337.23 265.192C1333.73 262.366 1330.24 259.541 1326.58 256.585C1360.94 236.993 1383.99 207.243 1395.09 166.615C1395.18 166.649 1395.27 166.681 1395.36 166.715C1395.36 168.797 1395.48 170.888 1395.33 172.955C1395.08 176.591 1394.84 180.248 1394.26 183.832C1393.33 189.618 1392.34 195.418 1390.97 201.093C1388.96 209.393 1385.99 217.335 1382.43 224.995C1378.38 233.71 1373.67 241.985 1367.92 249.468C1364.22 254.276 1360.32 258.943 1356.18 263.297C1348.9 270.941 1340.83 277.499 1332.01 282.893C1328.74 284.894 1325.37 286.717 1322.03 288.583C1321.36 288.96 1321 289.38 1321.05 290.262C1321.11 291.43 1321.07 292.602 1321.07 294C1321.61 293.785 1321.98 293.668 1322.33 293.494C1340.67 284.415 1356.42 271.518 1369.41 254.697C1383.4 236.595 1392.7 215.926 1397.16 192.708C1398.35 186.512 1399.21 180.255 1399.47 173.918C1399.58 171.482 1399.65 169.046 1399.76 166.613C1399.79 166.139 1399.92 165.67 1400 165.198C1400 164.629 1400 164.059 1400 163.49L1400 163.485Z" fill="#242424" fill-opacity="0.15"/>
</svg>
