<svg width="18" height="18" viewBox="0 0 18 18" fill="none" xmlns="http://www.w3.org/2000/svg">
<path d="M9.00201 13.615C6.44808 13.615 4.38806 11.5545 4.38806 9C4.38806 6.4455 6.44808 4.38503 9.00201 4.38503C11.5559 4.38503 13.616 6.4455 13.616 9C13.616 11.5545 11.5559 13.615 9.00201 13.615ZM9.00201 5.99967C7.35159 5.99967 6.00234 7.3452 6.00234 9C6.00234 10.6548 7.34757 12.0003 9.00201 12.0003C10.6564 12.0003 12.0017 10.6548 12.0017 9C12.0017 7.3452 10.6524 5.99967 9.00201 5.99967ZM14.8809 13.8037C14.8809 13.2053 14.399 12.7273 13.8047 12.7273C13.2064 12.7273 12.7285 13.2093 12.7285 13.8037C12.7285 14.3982 13.2104 14.8802 13.8047 14.8802C14.399 14.8802 14.8809 14.3982 14.8809 13.8037ZM17.9368 12.7113C17.8685 14.1532 17.5392 15.4304 16.4831 16.4828C15.431 17.5351 14.154 17.8644 12.7124 17.9367C11.2267 18.0211 6.77334 18.0211 5.28756 17.9367C3.84997 17.8685 2.57301 17.5391 1.5169 16.4868C0.460792 15.4345 0.135527 14.1572 0.063246 12.7153C-0.021082 11.2292 -0.021082 6.77485 0.063246 5.28874C0.131511 3.84682 0.460792 2.56956 1.5169 1.51724C2.57301 0.464911 3.84596 0.135557 5.28756 0.0632601C6.77334 -0.0210867 11.2267 -0.0210867 12.7124 0.0632601C14.154 0.131541 15.431 0.460894 16.4831 1.51724C17.5352 2.56956 17.8645 3.84682 17.9368 5.28874C18.0211 6.77485 18.0211 11.2251 17.9368 12.7113ZM16.0173 3.69419C15.7041 2.90695 15.0977 2.30046 14.3066 1.98315C13.122 1.51322 10.3111 1.62167 9.00201 1.62167C7.69292 1.62167 4.87797 1.51724 3.69738 1.98315C2.91032 2.29644 2.30396 2.90293 1.98673 3.69419C1.5169 4.87906 1.62532 7.69062 1.62532 9C1.62532 10.3094 1.52091 13.125 1.98673 14.3058C2.29994 15.093 2.9063 15.6995 3.69738 16.0168C4.88199 16.4868 7.69292 16.3783 9.00201 16.3783C10.3111 16.3783 13.126 16.4828 14.3066 16.0168C15.0937 15.7036 15.7001 15.0971 16.0173 14.3058C16.4871 13.1209 16.3787 10.3094 16.3787 9C16.3787 7.69062 16.4871 4.87504 16.0173 3.69419Z" fill="#242424"/>
</svg>
