<svg width="30" height="30" viewBox="0 0 30 30" fill="none" xmlns="http://www.w3.org/2000/svg">
<rect x="0.5" y="0.5" width="29" height="29" rx="4.5" stroke="#F68619"/>
<path d="M14.9945 23C13.0372 23 11.0799 23 9.12162 23C8.47796 23 7.91052 22.8071 7.48612 22.3046C7.0956 21.8426 6.96198 21.293 7.00903 20.6974C7.09278 19.6397 7.54823 18.7589 8.31422 18.04C8.98893 17.4067 9.81044 17.0962 10.7242 17.0153C10.8794 17.0012 11.0356 16.9965 11.1919 16.9965C13.7627 16.9955 16.3336 16.9983 18.9045 16.9946C19.581 16.9936 20.2275 17.1301 20.8232 17.4434C21.9722 18.0466 22.6676 19.0008 22.9264 20.2721C23.0129 20.6974 23.0393 21.1246 22.916 21.5471C22.661 22.4241 21.9345 22.9793 21.0189 22.9944C20.5155 23.0028 20.0111 22.9991 19.5067 22.9991C18.002 22.9991 16.4983 22.9991 14.9936 22.9991L14.9945 23Z" fill="#F68619"/>
<path d="M10.998 10.9873C11.0121 8.76465 12.8217 6.97394 15.051 7.00029C17.2069 7.02569 18.9995 8.71384 18.9957 11.0136C18.992 13.3238 17.1005 15.0298 14.9108 15.0016C12.7831 14.9743 10.9848 13.1393 10.998 10.9873Z" fill="#F68619"/>
</svg>
