<svg width="27" height="18" viewBox="0 0 27 18" fill="none" xmlns="http://www.w3.org/2000/svg">
<path d="M26.4358 2.81639C26.1253 1.7078 25.2104 0.834703 24.0487 0.538406C21.9431 0 13.5 0 13.5 0C13.5 0 5.05691 0 2.95128 0.538406C1.78962 0.83475 0.874714 1.7078 0.564191 2.81639C0 4.82578 0 9.01819 0 9.01819C0 9.01819 0 13.2106 0.564191 15.22C0.874714 16.3286 1.78962 17.1653 2.95128 17.4616C5.05691 18 13.5 18 13.5 18C13.5 18 21.9431 18 24.0487 17.4616C25.2104 17.1653 26.1253 16.3286 26.4358 15.22C27 13.2106 27 9.01819 27 9.01819C27 9.01819 27 4.82578 26.4358 2.81639ZM10.7386 12.8246V5.2118L17.7954 9.01828L10.7386 12.8246Z" fill="#242424"/>
</svg>
